<svg xmlns="http://www.w3.org/2000/svg" width="27.109" height="20.948" viewBox="0 0 27.109 20.948">
  <g id="_24px" data-name="24px" transform="translate(-1 -4.5)">
    <g id="Flat" transform="translate(1 4.5)">
      <g id="Grupo_3" data-name="Grupo 3">
        <g id="Componente_1_1" data-name="Componente 1 – 1">
          <path id="Caminho_4" data-name="Caminho 4" d="M25.644,5.116A14.546,14.546,0,0,0,21.332,4.5a11.46,11.46,0,0,0-6.777,1.848A11.46,11.46,0,0,0,7.777,4.5,11.46,11.46,0,0,0,1,6.348V24.4a.663.663,0,0,0,.616.616c.123,0,.185-.062.308-.062A15.04,15.04,0,0,1,7.777,23.6a11.46,11.46,0,0,1,6.777,1.848A14.842,14.842,0,0,1,21.332,23.6a12.542,12.542,0,0,1,5.853,1.294.555.555,0,0,0,.308.062.663.663,0,0,0,.616-.616V6.348A8.4,8.4,0,0,0,25.644,5.116Zm0,16.635a14.319,14.319,0,0,0-4.313-.616,14.842,14.842,0,0,0-6.777,1.848V8.813a14.842,14.842,0,0,1,6.777-1.848,14.319,14.319,0,0,1,4.313.616Z" transform="translate(-1 -4.5)" fill="#efefef"/>
          <path id="Caminho_5" data-name="Caminho 5" d="M18.545,10.848a14.41,14.41,0,0,1,3.081.32V9.3A16.639,16.639,0,0,0,18.545,9,14.179,14.179,0,0,0,13,10.023v2.045A11.439,11.439,0,0,1,18.545,10.848Z" transform="translate(1.787 -3.455)" fill="#efefef"/>
          <path id="Caminho_6" data-name="Caminho 6" d="M13,12.683v2.045a11.439,11.439,0,0,1,5.545-1.22,14.41,14.41,0,0,1,3.081.32V11.956a16.639,16.639,0,0,0-3.081-.3A14.406,14.406,0,0,0,13,12.683Z" transform="translate(1.787 -2.837)" fill="#efefef"/>
          <path id="Caminho_7" data-name="Caminho 7" d="M18.545,14.33A14.179,14.179,0,0,0,13,15.353V17.4a11.439,11.439,0,0,1,5.545-1.22,14.41,14.41,0,0,1,3.081.32V14.626A15.645,15.645,0,0,0,18.545,14.33Z" transform="translate(1.787 -2.217)" fill="#efefef"/>
        </g>
      </g>
    </g>
  </g>
</svg>
