<svg xmlns="http://www.w3.org/2000/svg" width="24" height="24" viewBox="0 0 27.214 27.214"><defs><style>.a{fill:#bfbfbf;}.b{fill:none;}</style></defs><path class="a" d="M13.071,6.154A2.381,2.381,0,1,1,10.69,8.536a2.381,2.381,0,0,1,2.381-2.381m0,10.205c3.368,0,6.917,1.656,6.917,2.381v1.247H6.154V18.741c0-.726,3.549-2.381,6.917-2.381m0-12.36a4.536,4.536,0,1,0,4.536,4.536A4.534,4.534,0,0,0,13.071,4Zm0,10.205C10.044,14.205,4,15.725,4,18.741v3.4H22.143v-3.4C22.143,15.725,16.1,14.205,13.071,14.205Z" transform="translate(0.536 0.536)"/><path class="b" d="M0,0H27.214V27.214H0Z"/></svg>