<svg xmlns="http://www.w3.org/2000/svg" width="25.631" height="24.143" viewBox="0 0 25.631 24.143"><defs><style>.a{fill:#01113d;}</style></defs><path class="a" d="M9.164,4.456,7.326,2.686A12.775,12.775,0,0,0,2.03,12.4H4.6A10.37,10.37,0,0,1,9.164,4.456ZM25.09,12.4h2.571a12.852,12.852,0,0,0-5.3-9.719L20.54,4.456A10.43,10.43,0,0,1,25.09,12.4Zm-2.532.619c0-3.8-2.108-6.983-5.784-7.825V4.357a1.929,1.929,0,0,0-3.856,0V5.2c-3.689.842-5.784,4.011-5.784,7.825v6.191L4.562,21.691v1.238H25.128V21.691l-2.571-2.476ZM14.845,26.643a2.334,2.334,0,0,0,.514-.05,2.588,2.588,0,0,0,1.851-1.461,2.406,2.406,0,0,0,.193-.966H12.262A2.544,2.544,0,0,0,14.845,26.643Z" transform="translate(-2.03 -2.5)"/></svg>