<svg xmlns="http://www.w3.org/2000/svg" width="39.695" height="38" viewBox="0 0 39.695 38"><defs><style>.a{fill:#6d6e6e;}.b{fill:none;}</style></defs><path class="a" d="M23.675,20.417H22.368l-.463-.428a9.994,9.994,0,0,0,2.6-6.7A10.528,10.528,0,0,0,13.751,3,10.528,10.528,0,0,0,3,13.292,10.528,10.528,0,0,0,13.751,23.583a10.987,10.987,0,0,0,7-2.486l.447.443v1.251l8.27,7.9,2.464-2.359Zm-9.924,0a7.279,7.279,0,0,1-7.443-7.125,7.279,7.279,0,0,1,7.443-7.125,7.279,7.279,0,0,1,7.443,7.125A7.279,7.279,0,0,1,13.751,20.417Z" transform="translate(1.962 1.75)"/><path class="b" d="M0,0H39.7V38H0Z"/></svg>