<?xml version="1.0" standalone="no"?>
<!DOCTYPE svg PUBLIC "-//W3C//DTD SVG 20010904//EN"
 "http://www.w3.org/TR/2001/REC-SVG-20010904/DTD/svg10.dtd">
<svg version="1.0" xmlns="http://www.w3.org/2000/svg"
 width="700.000000pt" height="700.000000pt" viewBox="0 0 700.000000 700.000000"
 preserveAspectRatio="xMidYMid meet">
<metadata>
Created by potrace 1.11, written by Peter Selinger 2001-2013
</metadata>
<g transform="translate(0.000000,700.000000) scale(0.100000,-0.100000)"
fill="#000000" stroke="none">
<path d="M1350 6030 l0 -271 -21 6 c-23 8 -219 8 -284 1 -39 -4 -94 -13 -145
-22 -14 -2 -41 -7 -60 -10 -19 -3 -66 -12 -103 -20 -38 -8 -70 -14 -73 -14 -2
0 -4 -142 -4 -315 l0 -314 -42 -11 c-182 -45 -281 -82 -470 -178 l-146 -75 0
-2048 c0 -1127 2 -2049 4 -2049 2 0 72 33 156 74 158 77 311 141 433 181 94
31 234 73 265 80 210 45 320 67 390 76 47 6 96 12 110 15 56 9 254 18 390 18
298 -1 556 -36 860 -116 41 -11 84 -22 95 -25 11 -3 27 -7 35 -11 8 -3 17 -6
20 -7 66 -17 309 -106 400 -147 92 -40 255 -123 258 -130 2 -5 9 -8 16 -8 10
0 13 401 13 1957 l0 1956 -45 81 c-68 124 -168 277 -276 426 -55 74 -102 137
-105 140 -3 3 -26 30 -51 60 -25 30 -49 60 -55 66 -5 6 -43 49 -84 95 -117
131 -338 349 -425 418 -158 125 -334 227 -494 287 -71 27 -226 69 -288 78 -22
4 -49 8 -61 10 -12 3 -65 8 -117 11 l-96 7 0 -272z"/>
<path d="M5500 6292 c-244 -20 -532 -126 -763 -280 -201 -134 -442 -366 -707
-681 -102 -121 -360 -483 -360 -504 0 -3 -16 -29 -35 -58 -19 -30 -35 -57 -35
-61 0 -4 -10 -23 -23 -41 l-24 -35 0 -1961 c0 -1412 3 -1961 11 -1961 18 1 46
26 38 35 -4 5 -1 5 5 1 7 -4 37 6 65 22 215 117 624 258 923 318 6 1 35 6 65
13 68 13 118 21 240 36 185 24 569 24 745 0 17 -2 55 -7 85 -10 30 -4 57 -8
60 -10 3 -1 27 -6 53 -9 286 -39 693 -171 1011 -329 l144 -72 0 2048 0 2048
-38 24 c-149 94 -352 176 -582 236 l-38 10 0 314 0 313 -47 15 c-43 14 -103
28 -173 43 -91 18 -350 25 -432 12 l-38 -6 0 270 0 269 -57 -3 c-32 -2 -74 -4
-93 -6z"/>
</g>
</svg>
