<?xml version="1.0" encoding="utf-8"?>
<!-- Generator: Adobe Illustrator 22.0.0, SVG Export Plug-In . SVG Version: 6.00 Build 0)  -->
<svg version="1.1" id="Camada_1" xmlns:x="ns_extend;" xmlns:i="ns_ai;" xmlns:graph="ns_graphs;"
	 xmlns="http://www.w3.org/2000/svg" xmlns:xlink="http://www.w3.org/1999/xlink" x="0px" y="0px" viewBox="0 0 500 500"
	 style="enable-background:new 0 0 500 500;" xml:space="preserve">
<style type="text/css">
	.st0{fill:#FFF688;}
	.st1{fill:#FFCC29;}
	.st2{fill:#F58634;}
</style>
<metadata>
	<sfw  xmlns="ns_sfw;">
		<slices></slices>
		<sliceSourceBounds  bottomLeftOrigin="true" height="400" width="500" x="0" y="57.7"></sliceSourceBounds>
		<optimizationSettings>
			<targetSettings  fileFormat="PNG24Format" targetSettingsID="0">
				<PNG24Format  filtered="false" interlaced="false" matteColor="#FFFFFF" noMatteColor="false" transparency="true">
					</PNG24Format>
			</targetSettings>
		</optimizationSettings>
	</sfw>
</metadata>
<g>
	<g>
		<path class="st0" d="M0,149.3v292.9c21.3-11.9,64.7-32.1,122.6-32.5c59.8-0.4,104.6,20.6,126,32.5c-17-18.4-56.5-55.9-117.7-70.5
			c-33.6-8-62.7-6.5-82.7-3.5c0-79.4,0-158.8,0-238.2c-7.4,1.5-16.1,3.8-25.6,7.7C13.7,141.4,6.2,145.5,0,149.3z"/>
		<path class="st1" d="M113,82.1c-13.8-1.9-30.5-2.6-49.3,0c-5.9,0.8-11.4,1.9-16.6,3.2c0,95.8,0,191.6,0,287.5
			c20.1-4.9,37.4-5.4,50.4-4.6c47.7,2.9,82.7,25.7,106.5,41.2c17.6,11.5,31.6,23.1,42.1,32.9c-22.5-43.4-60.5-96.7-121.6-119.9
			c-4.1-1.6-8.2-3-12.3-4.2C112.5,239.5,112.8,160.8,113,82.1z"/>
		<path class="st2" d="M96.4,42.3c0,92.7,0,185.5,0,278.2c5.9,1,14.3,2.9,23.9,6.2c9,3.1,35.2,13.2,76.1,54.9
			c14.1,14.3,31.9,34.4,49.7,60.7c0-93.4,0-186.9,0-280.3c-13.1-24.5-27.3-42.7-37.8-54.8c-22.1-25.3-47-53.2-87.4-62.1
			C110.7,42.8,102,42.3,96.4,42.3z"/>
	</g>
	<g>
		<path class="st0" d="M500,142.6V440c-21.2-12-64.4-32.6-121.9-33c-59.4-0.4-104,20.9-125.3,33c16.9-18.6,56.2-56.7,117.1-71.5
			c33.4-8.1,62.3-6.6,82.3-3.6c0-80.6,0-161.2,0-241.8c7.3,1.5,16,3.9,25.5,7.8C486.4,134.5,493.9,138.7,500,142.6z"/>
		<path class="st1" d="M387.3,79.4c14.1-1.9,31.2-2.7,50.4,0c6,0.8,11.7,1.9,17,3.2c0,96.5,0,192.9,0,289.4
			c-20.6-4.9-38.2-5.4-51.5-4.6c-48.8,2.9-84.5,25.8-108.9,41.5c-18,11.5-32.3,23.3-43.1,33.1c23-43.7,61.9-97.4,124.3-120.7
			c4.2-1.6,8.4-3,12.6-4.2C387.8,237.8,387.5,158.6,387.3,79.4z"/>
		<path class="st2" d="M401.9,42.3c0,92.7,0,185.5,0,278.2c-5.9,1-14.4,2.9-24.1,6.2c-9,3.1-35.4,13.2-76.6,54.9
			c-14.2,14.3-32.1,34.4-50.1,60.7c0-93.4,0-186.9,0-280.3c13.2-24.5,27.4-42.7,38-54.8c22.2-25.3,47.3-53.2,88-62.1
			C387.5,42.8,396.3,42.3,401.9,42.3z"/>
	</g>
</g>
</svg>
