<?xml version="1.0" encoding="utf-8"?>
<!-- Generator: Adobe Illustrator 22.0.0, SVG Export Plug-In . SVG Version: 6.00 Build 0)  -->
<svg version="1.1" id="Camada_1" xmlns="http://www.w3.org/2000/svg" xmlns:xlink="http://www.w3.org/1999/xlink" x="0px" y="0px"
	 viewBox="0 0 375 253.5" style="enable-background:new 0 0 375 253.5;" xml:space="preserve">
<style type="text/css">
	.st0{fill:#FFAA00;}
	.st1{fill:#FF3D00;}
	.st2{fill:#004973;}
	.st3{fill:#0090FF;}
	.st4{fill:#2DC3F3;}
	.st5{fill:#FC750E;}
	.st6{fill:#FBAA4A;}
	.st7{fill:#00A2FF;}
	.st8{fill:#FF6F00;}
</style>
<g transform="translate(375 832) rotate(180)">
	<path class="st0" d="M249,670.5L201,700v-59L249,670.5z"/>
	<path class="st1" d="M101,703L0,765V641L101,703z"/>
	<path class="st2" d="M0,641.5L101,580v123L0,641.5z"/>
	<path class="st0" d="M65.2,560"/>
	<path class="st0" d="M0,578.5v63l103.5-63H0"/>
	<path class="st2" d="M201,641.5L101,703V580L201,641.5z"/>
	<path class="st2" d="M201,770l-100,62V708L201,770z"/>
	<path class="st0" d="M0,765l101-62v124L0,765z"/>
	<path class="st3" d="M154,670.5l48,29.2L154,729V670.5z M154,670.2l48-29.2v58.5L154,670.2z"/>
	<path d="M201,641.5l48-29.5v59L201,641.5z"/>
	<path class="st2" d="M153.3,612.5l47-29v58L153.3,612.5z"/>
	<path class="st4" d="M248.3,612.5l-48,29v-58L248.3,612.5z"/>
	<path class="st5" d="M201,583.5l8.1-5l39.9-0.3v34.3L201,583.5z"/>
	<path class="st1" d="M148,616v-37.5c4.5-0.6,56.5,0,61.1,0"/>
	<path class="st1" d="M87.5,578.5L148,616v-37.5C139.8,578.5,97.3,577.8,87.5,578.5"/>
	<path class="st6" d="M344,612.5L249,671v-92.8l39.8,0.3L344,612.5z"/>
	<path class="st2" d="M375,734l-11,7v-14L375,734z"/>
	<path class="st7" d="M210,741l-11,7v-14L210,741z"/>
	<path class="st8" d="M328,702l-30,19v-38L328,702z"/>
</g>
</svg>
