<svg width="220" height="220" viewBox="0 0 220 220" fill="none" xmlns="http://www.w3.org/2000/svg">
<g id="Takebook">
<g id="Group">
<path id="Vector" d="M22.2824 185.468C22.2824 185.843 22.1537 186.031 21.8963 186.031C21.496 186.031 18.9652 185.944 14.3039 185.771C14.1752 190.171 14.1108 193.699 14.1108 196.353C14.1108 198.012 14.168 200.501 14.2824 203.819C14.4111 207.137 14.4754 209.626 14.4754 211.285C14.4754 211.588 14.2681 211.739 13.8535 211.739C13.5961 211.739 13.2029 211.718 12.6738 211.674C12.1448 211.631 11.7444 211.609 11.4728 211.609C11.2154 211.609 10.8222 211.631 10.2931 211.674C9.76411 211.718 9.3709 211.739 9.11353 211.739C8.75607 211.739 8.57734 211.559 8.57734 211.198C8.57734 209.554 8.64168 207.087 8.77036 203.797C8.91335 200.494 8.98484 198.012 8.98484 196.353C8.98484 193.785 8.9062 190.258 8.74892 185.771C5.05991 186.002 2.35751 186.117 0.641695 186.117C0.470114 186.117 0.384323 186.045 0.384323 185.901C0.384323 185.641 0.448666 185.266 0.577352 184.776C0.734635 184.141 0.827575 183.766 0.856172 183.65C0.884769 183.145 0.984858 182.446 1.15644 181.551C1.22793 181.364 1.34947 181.27 1.52105 181.27L1.77842 181.291C6.84007 181.594 10.1788 181.746 11.7945 181.746C13.2243 181.746 15.5621 181.638 18.8079 181.421C21.0241 181.277 21.9464 181.205 21.5746 181.205C21.9464 181.205 22.1537 181.335 22.1966 181.594C22.168 181.436 22.1537 182.135 22.1537 183.693C22.1537 183.881 22.1752 184.177 22.2181 184.581C22.261 184.97 22.2824 185.266 22.2824 185.468ZM51.4298 211.48C51.4298 211.653 51.2582 211.739 50.9151 211.739C50.6434 211.739 50.243 211.718 49.714 211.674C49.1993 211.631 48.806 211.609 48.5344 211.609C48.2627 211.609 47.8552 211.631 47.3119 211.674C46.7685 211.718 46.361 211.739 46.0893 211.739C45.689 211.739 45.1742 210.65 44.5451 208.472C43.9303 206.279 43.3011 205.168 42.6577 205.139C42.1287 205.11 40.7489 205.096 38.5183 205.096H35.1296C32.7703 205.096 31.4263 205.11 31.0974 205.139C30.5827 205.182 30.0322 206.293 29.4459 208.472C28.874 210.65 28.4307 211.739 28.1162 211.739H23.2904C23.0045 211.739 22.8615 211.638 22.8615 211.436C22.8615 211.292 22.9616 210.967 23.1618 210.463L28.4164 195.964C28.8597 194.795 30.2038 191.426 32.4486 185.858C32.849 184.934 33.3923 183.542 34.0786 181.681C34.2502 181.133 34.4361 180.859 34.6363 180.859C34.9079 180.859 35.3083 180.895 35.8373 180.967C36.3664 181.039 36.7667 181.075 37.0384 181.075C37.2958 181.075 37.6818 181.039 38.1966 180.967C38.7256 180.88 39.1117 180.837 39.3548 180.837C39.4835 180.837 39.6622 181.104 39.891 181.638C40.2341 182.446 41.9285 186.795 44.9741 194.687C49.2779 205.781 51.4298 211.379 51.4298 211.48ZM41.4352 199.534C41.4352 199.116 40.7918 197.24 39.5049 193.908C38.2609 190.676 37.3816 188.555 36.8668 187.545C33.9071 195.163 32.4272 199.152 32.4272 199.513C32.4272 200.003 32.9705 200.292 34.0572 200.378C34.1144 200.393 34.815 200.4 36.1591 200.4H38.3682C40.4129 200.4 41.4352 200.111 41.4352 199.534ZM77.596 210.722C77.596 211.4 77.3887 211.739 76.974 211.739H72.041C71.6264 211.739 70.5469 210.203 68.8024 207.13C67.3297 204.533 66.3503 202.658 65.8641 201.503C65.378 200.393 65.0991 199.772 65.0276 199.642C64.5987 198.921 64.0982 198.539 63.5263 198.495C63.3547 198.481 62.8757 198.474 62.0893 198.474C60.2877 198.474 59.3869 198.697 59.3869 199.145C59.3869 200.472 59.4298 202.456 59.5156 205.096C59.6157 207.736 59.6657 209.712 59.6657 211.025C59.6657 211.501 59.487 211.739 59.1295 211.739C58.8579 211.739 58.4504 211.718 57.907 211.674C57.3637 211.631 56.9562 211.609 56.6845 211.609C56.4271 211.609 56.0411 211.631 55.5263 211.674C55.0259 211.718 54.647 211.739 54.3896 211.739C54.0321 211.739 53.8534 211.573 53.8534 211.242C53.8534 209.655 53.9249 207.274 54.0679 204.1C54.2252 200.912 54.3038 198.524 54.3038 196.937C54.3038 195.264 54.2252 192.754 54.0679 189.407C53.9249 186.045 53.8534 183.528 53.8534 181.854C53.8534 181.537 54.0321 181.378 54.3896 181.378C54.647 181.378 55.0402 181.4 55.5692 181.443C56.0983 181.486 56.4986 181.508 56.7703 181.508C57.0277 181.508 57.4137 181.486 57.9285 181.443C58.4432 181.4 58.8293 181.378 59.0866 181.378C59.4155 181.378 59.5799 181.508 59.5799 181.768C59.5799 182.994 59.537 184.84 59.4512 187.307C59.3798 189.774 59.344 191.628 59.344 192.869C59.344 193.432 59.3798 193.785 59.4512 193.929C59.5656 194.189 59.8588 194.319 60.3306 194.319C63.1045 194.319 65.1349 193.8 66.4217 192.761C67.5227 191.837 68.5665 190.142 69.5531 187.675C70.268 185.742 70.983 183.809 71.6979 181.876C71.798 181.63 72.0196 181.465 72.3628 181.378C72.5915 181.32 73.3493 181.291 74.6362 181.291C76.209 181.291 76.9955 181.515 76.9955 181.962C76.9955 182.222 76.6666 183.391 76.0089 185.468C75.2367 187.892 74.2359 190.027 73.0062 191.874C72.1912 193.129 71.1116 194.391 69.7676 195.661C69.4244 195.964 69.2528 196.238 69.2528 196.483C69.2528 196.743 69.8319 198.034 70.9901 200.357C71.991 202.362 72.8989 203.97 73.714 205.182C74.6148 206.293 75.873 208.003 77.4888 210.311C77.5602 210.441 77.596 210.578 77.596 210.722ZM100.373 207.39C100.373 207.62 100.316 207.952 100.202 208.385C100.073 208.933 99.9945 209.265 99.9659 209.381C99.923 209.9 99.8229 210.657 99.6657 211.653C99.5942 211.912 99.4083 212.042 99.108 212.042C98.965 212.042 98.6934 212.013 98.293 211.956C96.5343 211.696 93.8104 211.566 90.1214 211.566C89.0777 211.566 87.5048 211.595 85.4029 211.653C83.3011 211.71 81.7282 211.739 80.6845 211.739C80.2126 211.739 79.9767 211.53 79.9767 211.112C79.9767 209.496 80.0625 207.072 80.2341 203.841C80.4199 200.595 80.5129 198.164 80.5129 196.548C80.5129 194.903 80.4271 191.837 80.2555 187.351C80.2269 186.197 80.1483 184.473 80.0196 182.179L79.9981 181.876C79.9838 181.544 80.1697 181.378 80.5558 181.378C81.5567 181.378 83.058 181.407 85.0598 181.465C87.0616 181.522 88.5629 181.551 89.5638 181.551C90.5218 181.551 91.9516 181.522 93.8533 181.465C95.7693 181.407 97.2063 181.378 98.1643 181.378C98.8363 181.378 99.201 181.587 99.2582 182.006C99.5584 183.91 99.7086 185.093 99.7086 185.555C99.7086 185.886 99.5513 186.052 99.2367 186.052C98.0213 186.052 96.1768 185.987 93.7032 185.858C91.2439 185.713 89.3922 185.641 88.1483 185.641C86.9758 185.641 86.2323 185.8 85.9177 186.117C85.6174 186.435 85.4673 187.221 85.4673 188.476V191.7C85.4673 192.58 85.4887 193.093 85.5316 193.237C85.6603 193.684 86.0321 193.908 86.6469 193.908C86.8185 193.908 87.0616 193.9 87.3761 193.886C87.705 193.886 87.9481 193.886 88.1054 193.886C90.9079 193.886 93.4244 193.836 95.6549 193.735C96.5271 193.706 97.5566 193.634 98.7434 193.518C99.0437 193.489 99.1938 193.619 99.1938 193.908C99.1938 194.369 99.1366 195.076 99.0222 196.028C98.9221 196.981 98.8721 197.695 98.8721 198.171C98.8721 198.431 98.6576 198.56 98.2287 198.56C98.0571 198.56 97.4208 198.51 96.3198 198.409C95.5191 198.322 93.7175 198.279 90.915 198.279C88.5558 198.279 87.0616 198.308 86.4324 198.366C85.8605 198.409 85.5316 198.712 85.4458 199.275C85.4601 199.174 85.4673 199.729 85.4673 200.941V204.144C85.4673 205.644 85.6961 206.582 86.1536 206.957C86.5111 207.26 87.4047 207.411 88.8346 207.411L91.1938 207.39C92.1947 207.39 95.0044 207.216 99.6228 206.87L99.9445 206.849C100.23 206.82 100.373 207 100.373 207.39Z" fill="black"/>
<path id="Vector_2" d="M126.819 202.391C126.819 204.901 126.069 207.058 124.567 208.861C122.98 210.751 120.964 211.696 118.519 211.696C117.604 211.696 116.224 211.674 114.38 211.631C112.55 211.588 111.177 211.566 110.262 211.566C109.59 211.566 108.575 211.595 107.216 211.653C105.872 211.71 104.864 211.739 104.192 211.739C103.835 211.739 103.656 211.573 103.656 211.242C103.656 209.655 103.727 207.274 103.87 204.1C104.028 200.912 104.106 198.524 104.106 196.937C104.106 195.264 104.028 192.754 103.87 189.407C103.727 186.045 103.656 183.528 103.656 181.854C103.656 181.537 103.835 181.378 104.192 181.378C105.465 181.378 107.381 181.385 109.94 181.4C112.499 181.414 114.423 181.421 115.709 181.421C118.712 181.421 121.107 181.984 122.894 183.109C125.068 184.48 126.154 186.608 126.154 189.493C126.154 190.489 125.869 191.527 125.297 192.609C124.725 193.677 124.031 194.485 123.216 195.033C122.801 195.307 122.594 195.487 122.594 195.574C122.594 195.661 122.801 195.819 123.216 196.05C124.303 196.656 125.175 197.55 125.833 198.733C126.49 199.902 126.819 201.121 126.819 202.391ZM120.793 189.969C120.793 187.935 119.892 186.564 118.09 185.858C117.003 185.439 115.223 185.23 112.75 185.23C110.348 185.23 109.146 185.41 109.146 185.771C109.146 186.247 109.125 186.961 109.082 187.913C109.039 188.866 109.018 189.587 109.018 190.077C109.018 190.409 109.025 190.921 109.039 191.614C109.054 192.306 109.061 192.826 109.061 193.172C109.061 193.59 110.676 193.8 113.908 193.8C118.498 193.8 120.793 192.523 120.793 189.969ZM121.372 202.174C121.372 200.414 120.592 199.224 119.034 198.604C118.047 198.2 116.51 197.998 114.423 197.998C110.819 197.998 109.018 198.192 109.018 198.582V202.131C109.018 202.65 109.032 203.444 109.061 204.511C109.089 205.579 109.104 206.38 109.104 206.914C109.104 207.058 109.561 207.166 110.476 207.238C111.391 207.31 112.75 207.346 114.551 207.346C116.81 207.346 118.433 207.051 119.42 206.459C120.721 205.68 121.372 204.252 121.372 202.174ZM158.841 196.548C158.841 200.833 157.482 204.519 154.766 207.606C151.935 210.809 148.417 212.41 144.213 212.41C139.995 212.41 136.478 210.816 133.661 207.628C130.944 204.555 129.586 200.861 129.586 196.548C129.586 192.277 130.959 188.591 133.704 185.49C136.535 182.272 140.038 180.664 144.213 180.664C148.403 180.664 151.913 182.272 154.744 185.49C157.475 188.577 158.841 192.263 158.841 196.548ZM153.672 196.483C153.672 193.655 152.8 191.195 151.055 189.104C149.225 186.882 146.93 185.771 144.171 185.771C141.44 185.771 139.166 186.896 137.35 189.147C135.634 191.253 134.776 193.72 134.776 196.548C134.776 199.361 135.634 201.821 137.35 203.927C139.166 206.178 141.44 207.303 144.171 207.303C146.944 207.303 149.246 206.178 151.077 203.927C152.807 201.821 153.672 199.339 153.672 196.483ZM190.712 196.548C190.712 200.833 189.354 204.519 186.637 207.606C183.806 210.809 180.288 212.41 176.085 212.41C171.867 212.41 168.349 210.816 165.532 207.628C162.816 204.555 161.457 200.861 161.457 196.548C161.457 192.277 162.83 188.591 165.575 185.49C168.406 182.272 171.91 180.664 176.085 180.664C180.274 180.664 183.784 182.272 186.616 185.49C189.347 188.577 190.712 192.263 190.712 196.548ZM185.543 196.483C185.543 193.655 184.671 191.195 182.927 189.104C181.096 186.882 178.801 185.771 176.042 185.771C173.311 185.771 171.037 186.896 169.221 189.147C167.506 191.253 166.648 193.72 166.648 196.548C166.648 199.361 167.506 201.821 169.221 203.927C171.037 206.178 173.311 207.303 176.042 207.303C178.816 207.303 181.118 206.178 182.948 203.927C184.678 201.821 185.543 199.339 185.543 196.483ZM217.993 210.722C217.993 211.4 217.786 211.739 217.371 211.739H212.439C212.024 211.739 210.944 210.203 209.2 207.13C207.727 204.533 206.748 202.658 206.262 201.503C205.775 200.393 205.497 199.772 205.425 199.642C204.996 198.921 204.496 198.539 203.924 198.495C203.752 198.481 203.273 198.474 202.487 198.474C200.685 198.474 199.784 198.697 199.784 199.145C199.784 200.472 199.827 202.456 199.913 205.096C200.013 207.736 200.063 209.712 200.063 211.025C200.063 211.501 199.884 211.739 199.527 211.739C199.255 211.739 198.848 211.718 198.304 211.674C197.761 211.631 197.354 211.609 197.082 211.609C196.825 211.609 196.439 211.631 195.924 211.674C195.423 211.718 195.044 211.739 194.787 211.739C194.43 211.739 194.251 211.573 194.251 211.242C194.251 209.655 194.322 207.274 194.465 204.1C194.623 200.912 194.701 198.524 194.701 196.937C194.701 195.264 194.623 192.754 194.465 189.407C194.322 186.045 194.251 183.528 194.251 181.854C194.251 181.537 194.43 181.378 194.787 181.378C195.044 181.378 195.438 181.4 195.967 181.443C196.496 181.486 196.896 181.508 197.168 181.508C197.425 181.508 197.811 181.486 198.326 181.443C198.841 181.4 199.227 181.378 199.484 181.378C199.813 181.378 199.977 181.508 199.977 181.768C199.977 182.994 199.935 184.84 199.849 187.307C199.777 189.774 199.741 191.628 199.741 192.869C199.741 193.432 199.777 193.785 199.849 193.929C199.963 194.189 200.256 194.319 200.728 194.319C203.502 194.319 205.532 193.8 206.819 192.761C207.92 191.837 208.964 190.142 209.951 187.675C210.666 185.742 211.38 183.809 212.095 181.876C212.195 181.63 212.417 181.465 212.76 181.378C212.989 181.32 213.747 181.291 215.034 181.291C216.607 181.291 217.393 181.515 217.393 181.962C217.393 182.222 217.064 183.391 216.406 185.468C215.634 187.892 214.633 190.027 213.404 191.874C212.589 193.129 211.509 194.391 210.165 195.661C209.822 195.964 209.65 196.238 209.65 196.483C209.65 196.743 210.229 198.034 211.388 200.357C212.388 202.362 213.296 203.97 214.111 205.182C215.012 206.293 216.271 208.003 217.886 210.311C217.958 210.441 217.993 210.578 217.993 210.722Z" fill="#F48735"/>
<path id="Vector_3" d="M3.2 49.6V174.7C12.3 169.6 30.8 161 55.6 160.8C81.1 160.6 102.9 171.2 108.3 174.7C105.6 172.3 82.4 150.9 56.3 144.7C41.9 141.3 27.9 143.5 23.3 145C23.3 111.1 23.3 75.3 23.3 41.4C20.1 42 16.9 42.9 12.8 44.6C9 46.3 5.8 48 3.2 49.6Z" fill="#FFF688"/>
<path id="Vector_4" d="M44.4 20.3C43.2 20.2 41.4 20 39.3 20C36.2 20 33.8 20.4 30.4 20.9C28.6 21.2 26.1 21.6 23.3 22.3V145.1C31.9 143 39.3 142.8 44.8 143.1C65.2 144.3 80.1 154.1 90.3 160.7C97.8 165.6 103.8 170.6 108.3 174.8C102.1 165.8 96.1 158.7 91.3 153.4C81.5 142.6 74.3 137 72 135.3C65.1 130.1 60.7 128 58.3 126.9C52.8 124.5 47.9 123.4 44.3 122.8C44.3 109.9 44.3 84.5 44.3 71.5C44.3 58.5 44.4 33.2 44.4 20.3Z" fill="#FFCC29"/>
<path id="Vector_5" d="M44.4 3.89999C44.4 43.5 44.4 83.1 44.4 122.7C46.9 123.1 50.5 123.9 54.6 125.3C58.4 126.6 69.6 130.9 87.1 148.7C93.1 154.8 100.7 163.4 108.3 174.6C108.3 134.7 108.3 94.8 108.3 54.9C102.7 44.4 96.6 36.7 92.2 31.5C82.7 20.9 72.1 8.89999 54.8 5.09999C50.5 4.19999 46.7 3.89999 44.4 3.89999Z" fill="#F58634"/>
<path id="Vector_6" d="M216.6 49.6V174.7C207.5 169.6 189 161 164.2 160.8C138.7 160.6 117 171.2 111.5 174.7C114.2 172.3 137.4 150.9 163.5 144.7C177.9 141.3 191.9 143.5 196.5 145C196.5 111.1 196.5 75.3 196.5 41.4C199.7 42 202.9 42.9 207 44.6C210.8 46.3 214 48 216.6 49.6Z" fill="#FFF688"/>
<path id="Vector_7" d="M175.5 20.3C176.8 20.1 178.6 19.9 180.6 19.9C184.3 19.8 187.3 20.2 189.4 20.5C191.4 20.8 193.8 21.4 196.5 22.3V145.1C187.9 143 180.5 142.8 175 143.1C154.6 144.3 139.7 154.1 129.5 160.7C122 165.6 116 170.6 111.5 174.8C117.7 165.8 123.7 158.7 128.5 153.4C138.3 142.6 145.5 137 147.8 135.3C154.7 130.1 159.1 128 161.5 126.9C167 124.5 171.9 123.4 175.5 122.8C175.5 109.9 175.5 84.5 175.5 71.5C175.5 58.6 175.5 33.2 175.5 20.3Z" fill="#FFCC29"/>
<path id="Vector_8" d="M175.5 3.89999C175.5 43.5 175.5 83.1 175.5 122.7C173 123.1 169.4 123.9 165.3 125.3C161.5 126.6 150.3 130.9 132.8 148.7C126.8 154.8 119.2 163.4 111.6 174.6C111.6 134.7 111.6 94.8 111.6 54.9C117.3 44.4 123.3 36.6 127.7 31.5C136.8 21.1 147.7 8.79999 165 4.99999C169.4 4.19999 173.1 3.99999 175.5 3.89999Z" fill="#F58634"/>
</g>
</g>
</svg>
